<?xml version="1.0" encoding="utf-8"?>
<!-- Generator: Adobe Illustrator 17.1.0, SVG Export Plug-In . SVG Version: 6.00 Build 0)  -->
<!DOCTYPE svg PUBLIC "-//W3C//DTD SVG 1.1//EN" "http://www.w3.org/Graphics/SVG/1.1/DTD/svg11.dtd">
<svg version="1.1" id="Layer_1" xmlns="http://www.w3.org/2000/svg" xmlns:xlink="http://www.w3.org/1999/xlink" x="0px" y="0px"
	 viewBox="0 0 30.915 25.124" enable-background="new 0 0 30.915 25.124" xml:space="preserve">
<path d="M30.915,2.974c-1.137,0.504-2.36,0.845-3.643,0.999c1.31-0.785,2.315-2.028,2.789-3.509
	c-1.225,0.727-2.583,1.255-4.028,1.539C24.876,0.77,23.228,0,21.404,0c-3.503,0-6.343,2.84-6.343,6.342
	c0,0.497,0.056,0.981,0.164,1.445C9.954,7.523,5.28,4.998,2.152,1.161C1.606,2.098,1.293,3.187,1.293,4.35
	c0,2.2,1.12,4.142,2.822,5.279c-1.04-0.033-2.018-0.318-2.873-0.793c0,0.027-0.001,0.053-0.001,0.08
	c0,3.073,2.186,5.637,5.088,6.219c-0.532,0.145-1.093,0.222-1.671,0.222c-0.409,0-0.806-0.04-1.193-0.114
	c0.807,2.52,3.149,4.354,5.925,4.405c-2.171,1.701-4.906,2.715-7.877,2.715c-0.512,0-1.017-0.03-1.513-0.089
	c2.807,1.8,6.141,2.85,9.723,2.85c11.666,0,18.046-9.665,18.046-18.046c0-0.275-0.006-0.549-0.018-0.82
	C28.989,5.363,30.065,4.246,30.915,2.974z"/>
</svg>
